<svg width="200" height="56" viewBox="0 0 200 56" fill="none" xmlns="http://www.w3.org/2000/svg">
<path d="M70.499 27.2188V28.499C70.499 30.5524 70.2207 32.3955 69.6641 34.0283C69.1074 35.6611 68.3219 37.0527 67.3076 38.2031C66.2933 39.3411 65.0811 40.2132 63.6709 40.8193C62.2731 41.4255 60.7207 41.7285 59.0137 41.7285C57.319 41.7285 55.7666 41.4255 54.3564 40.8193C52.9587 40.2132 51.7464 39.3411 50.7197 38.2031C49.693 37.0527 48.8952 35.6611 48.3262 34.0283C47.7695 32.3955 47.4912 30.5524 47.4912 28.499V27.2188C47.4912 25.153 47.7695 23.3099 48.3262 21.6895C48.8828 20.0566 49.6683 18.665 50.6826 17.5146C51.7093 16.3643 52.9215 15.486 54.3193 14.8799C55.7295 14.2738 57.2819 13.9707 58.9766 13.9707C60.6836 13.9707 62.236 14.2738 63.6338 14.8799C65.0439 15.486 66.2562 16.3643 67.2705 17.5146C68.2972 18.665 69.0889 20.0566 69.6455 21.6895C70.2145 23.3099 70.499 25.153 70.499 27.2188ZM64.877 28.499V27.1816C64.877 25.7467 64.7471 24.485 64.4873 23.3965C64.2275 22.3079 63.8441 21.3926 63.3369 20.6504C62.8298 19.9082 62.2113 19.3516 61.4814 18.9805C60.7516 18.597 59.9167 18.4053 58.9766 18.4053C58.0365 18.4053 57.2015 18.597 56.4717 18.9805C55.7542 19.3516 55.1419 19.9082 54.6348 20.6504C54.14 21.3926 53.7627 22.3079 53.5029 23.3965C53.2432 24.485 53.1133 25.7467 53.1133 27.1816V28.499C53.1133 29.9215 53.2432 31.1833 53.5029 32.2842C53.7627 33.3727 54.1462 34.2943 54.6533 35.0488C55.1605 35.791 55.779 36.3538 56.5088 36.7373C57.2386 37.1208 58.0736 37.3125 59.0137 37.3125C59.9538 37.3125 60.7887 37.1208 61.5186 36.7373C62.2484 36.3538 62.8607 35.791 63.3555 35.0488C63.8503 34.2943 64.2275 33.3727 64.4873 32.2842C64.7471 31.1833 64.877 29.9215 64.877 28.499ZM79.5166 25.6602V41.3574H74.1729V21.2812H79.2012L79.5166 25.6602ZM85.5654 21.1514L85.4727 26.1055C85.2129 26.0684 84.8975 26.0374 84.5264 26.0127C84.1676 25.9756 83.8398 25.957 83.543 25.957C82.7884 25.957 82.1328 26.056 81.5762 26.2539C81.0319 26.4395 80.5742 26.7178 80.2031 27.0889C79.8444 27.46 79.5723 27.9115 79.3867 28.4434C79.2135 28.9753 79.1146 29.5814 79.0898 30.2617L78.0137 29.9277C78.0137 28.6289 78.1436 27.4352 78.4033 26.3467C78.6631 25.2458 79.0404 24.2871 79.5352 23.4707C80.0423 22.6543 80.6608 22.0234 81.3906 21.5781C82.1204 21.1328 82.9554 20.9102 83.8955 20.9102C84.1924 20.9102 84.4954 20.9349 84.8047 20.9844C85.1139 21.0215 85.3675 21.0771 85.5654 21.1514ZM100.428 21.2812H105.271V40.6895C105.271 42.5202 104.862 44.0726 104.046 45.3467C103.242 46.6331 102.116 47.6042 100.669 48.2598C99.2217 48.9277 97.5394 49.2617 95.6221 49.2617C94.7809 49.2617 93.8903 49.1504 92.9502 48.9277C92.0225 48.7051 91.1318 48.3587 90.2783 47.8887C89.4372 47.4186 88.7321 46.8249 88.1631 46.1074L90.5195 42.9531C91.138 43.6706 91.8555 44.2272 92.6719 44.623C93.4883 45.0312 94.3913 45.2354 95.3809 45.2354C96.3457 45.2354 97.1621 45.056 97.8301 44.6973C98.498 44.3509 99.0114 43.8376 99.3701 43.1572C99.7288 42.4893 99.9082 41.679 99.9082 40.7266V25.9199L100.428 21.2812ZM86.9199 31.5605V31.1709C86.9199 29.637 87.1055 28.2454 87.4766 26.9961C87.86 25.7344 88.3981 24.652 89.0908 23.749C89.7959 22.846 90.6494 22.1471 91.6514 21.6523C92.6533 21.1576 93.7852 20.9102 95.0469 20.9102C96.3828 20.9102 97.5023 21.1576 98.4053 21.6523C99.3083 22.1471 100.05 22.8522 100.632 23.7676C101.213 24.6706 101.665 25.7406 101.986 26.9775C102.32 28.2021 102.58 29.5443 102.766 31.0039V31.8574C102.58 33.2552 102.302 34.554 101.931 35.7539C101.56 36.9538 101.071 38.0052 100.465 38.9082C99.8587 39.7988 99.1042 40.4915 98.2012 40.9863C97.3105 41.4811 96.2467 41.7285 95.0098 41.7285C93.7728 41.7285 92.6533 41.4749 91.6514 40.9678C90.6618 40.4606 89.8145 39.7493 89.1094 38.834C88.4043 37.9186 87.86 36.8424 87.4766 35.6055C87.1055 34.3685 86.9199 33.0202 86.9199 31.5605ZM92.2637 31.1709V31.5605C92.2637 32.3893 92.3441 33.1624 92.5049 33.8799C92.6657 34.5973 92.9131 35.2344 93.2471 35.791C93.5934 36.3353 94.0202 36.762 94.5273 37.0713C95.0469 37.3682 95.6592 37.5166 96.3643 37.5166C97.3415 37.5166 98.1393 37.3125 98.7578 36.9043C99.3763 36.4837 99.8402 35.9085 100.149 35.1787C100.459 34.4489 100.638 33.6077 100.688 32.6553V30.2246C100.663 29.4453 100.558 28.7464 100.372 28.1279C100.187 27.4971 99.9268 26.959 99.5928 26.5137C99.2588 26.0684 98.8258 25.722 98.2939 25.4746C97.762 25.2272 97.1312 25.1035 96.4014 25.1035C95.6963 25.1035 95.084 25.2643 94.5645 25.5859C94.0573 25.8952 93.6305 26.3219 93.2842 26.8662C92.9502 27.4105 92.6966 28.0537 92.5234 28.7959C92.3503 29.5257 92.2637 30.3174 92.2637 31.1709ZM120.263 36.8301V27.8867C120.263 27.2435 120.158 26.693 119.947 26.2354C119.737 25.7653 119.409 25.4004 118.964 25.1406C118.531 24.8809 117.968 24.751 117.275 24.751C116.682 24.751 116.168 24.8561 115.735 25.0664C115.302 25.2643 114.968 25.555 114.733 25.9385C114.498 26.3096 114.381 26.7487 114.381 27.2559H109.037C109.037 26.4023 109.235 25.5921 109.631 24.8252C110.027 24.0583 110.602 23.3841 111.356 22.8027C112.111 22.209 113.008 21.7451 114.047 21.4111C115.098 21.0771 116.273 20.9102 117.572 20.9102C119.131 20.9102 120.516 21.1699 121.729 21.6895C122.941 22.209 123.893 22.9883 124.586 24.0273C125.291 25.0664 125.644 26.3652 125.644 27.9238V36.5146C125.644 37.6156 125.712 38.5186 125.848 39.2236C125.984 39.9163 126.182 40.5225 126.441 41.042V41.3574H121.042C120.782 40.8132 120.584 40.1328 120.448 39.3164C120.325 38.4876 120.263 37.6589 120.263 36.8301ZM120.968 29.1299L121.005 32.1543H118.018C117.312 32.1543 116.7 32.2347 116.181 32.3955C115.661 32.5563 115.234 32.7852 114.9 33.082C114.566 33.3665 114.319 33.7005 114.158 34.084C114.01 34.4674 113.936 34.888 113.936 35.3457C113.936 35.8034 114.041 36.2178 114.251 36.5889C114.461 36.9476 114.764 37.2321 115.16 37.4424C115.556 37.6403 116.02 37.7393 116.552 37.7393C117.356 37.7393 118.055 37.5785 118.648 37.2568C119.242 36.9352 119.7 36.5394 120.021 36.0693C120.355 35.5993 120.529 35.154 120.541 34.7334L121.951 36.9971C121.753 37.5042 121.481 38.0299 121.135 38.5742C120.801 39.1185 120.374 39.6318 119.854 40.1143C119.335 40.5843 118.71 40.974 117.98 41.2832C117.251 41.5801 116.385 41.7285 115.383 41.7285C114.109 41.7285 112.952 41.4749 111.913 40.9678C110.886 40.4482 110.07 39.737 109.464 38.834C108.87 37.9186 108.573 36.8796 108.573 35.7168C108.573 34.6654 108.771 33.7314 109.167 32.915C109.563 32.0986 110.144 31.4121 110.911 30.8555C111.69 30.2865 112.661 29.8597 113.824 29.5752C114.987 29.2783 116.335 29.1299 117.869 29.1299H120.968ZM134.995 25.5674V41.3574H129.651V21.2812H134.661L134.995 25.5674ZM134.216 30.6143H132.769C132.769 29.1299 132.96 27.7939 133.344 26.6064C133.727 25.4066 134.265 24.3861 134.958 23.5449C135.651 22.6914 136.473 22.042 137.426 21.5967C138.391 21.139 139.467 20.9102 140.654 20.9102C141.594 20.9102 142.454 21.0462 143.233 21.3184C144.013 21.5905 144.681 22.0234 145.237 22.6172C145.806 23.2109 146.239 23.9964 146.536 24.9736C146.845 25.9508 147 27.1445 147 28.5547V41.3574H141.619V28.5361C141.619 27.6455 141.495 26.9528 141.248 26.458C141.001 25.9632 140.636 25.6169 140.153 25.4189C139.683 25.2087 139.102 25.1035 138.409 25.1035C137.692 25.1035 137.067 25.2458 136.535 25.5303C136.016 25.8148 135.583 26.2106 135.236 26.7178C134.902 27.2126 134.649 27.7939 134.476 28.4619C134.302 29.1299 134.216 29.8473 134.216 30.6143ZM156.704 21.2812V41.3574H151.342V21.2812H156.704ZM151.008 16.0488C151.008 15.2695 151.28 14.6263 151.824 14.1191C152.368 13.612 153.098 13.3584 154.014 13.3584C154.917 13.3584 155.64 13.612 156.185 14.1191C156.741 14.6263 157.02 15.2695 157.02 16.0488C157.02 16.8281 156.741 17.4714 156.185 17.9785C155.64 18.4857 154.917 18.7393 154.014 18.7393C153.098 18.7393 152.368 18.4857 151.824 17.9785C151.28 17.4714 151.008 16.8281 151.008 16.0488ZM169.414 37.5537C170.07 37.5537 170.651 37.43 171.158 37.1826C171.665 36.9229 172.061 36.5641 172.346 36.1064C172.643 35.6364 172.797 35.0859 172.81 34.4551H177.838C177.826 35.8652 177.448 37.1208 176.706 38.2217C175.964 39.3102 174.968 40.1699 173.719 40.8008C172.469 41.4193 171.072 41.7285 169.525 41.7285C167.967 41.7285 166.606 41.4688 165.443 40.9492C164.293 40.4297 163.334 39.7122 162.567 38.7969C161.8 37.8691 161.225 36.793 160.842 35.5684C160.458 34.3314 160.267 33.0078 160.267 31.5977V31.0596C160.267 29.637 160.458 28.3135 160.842 27.0889C161.225 25.8519 161.8 24.7757 162.567 23.8604C163.334 22.9326 164.293 22.209 165.443 21.6895C166.594 21.1699 167.942 20.9102 169.488 20.9102C171.133 20.9102 172.575 21.2256 173.812 21.8564C175.061 22.4873 176.038 23.3903 176.743 24.5654C177.461 25.7282 177.826 27.1074 177.838 28.7031H172.81C172.797 28.0352 172.655 27.429 172.383 26.8848C172.123 26.3405 171.74 25.9076 171.232 25.5859C170.738 25.252 170.125 25.085 169.396 25.085C168.616 25.085 167.979 25.252 167.484 25.5859C166.99 25.9076 166.606 26.3529 166.334 26.9219C166.062 27.4785 165.87 28.1156 165.759 28.833C165.66 29.5381 165.61 30.2803 165.61 31.0596V31.5977C165.61 32.377 165.66 33.1253 165.759 33.8428C165.858 34.5602 166.043 35.1973 166.315 35.7539C166.6 36.3105 166.99 36.7497 167.484 37.0713C167.979 37.3929 168.622 37.5537 169.414 37.5537ZM186.28 12.8389V41.3574H180.937V12.8389H186.28ZM198.935 21.2812L190.214 31.2266L185.538 35.958L183.59 32.0986L187.301 27.3857L192.515 21.2812H198.935ZM193.387 41.3574L187.449 32.0801L191.142 28.8516L199.547 41.3574H193.387Z" fill="#274C5B"/>
<path d="M1.95508 41.9258H19.3954H36.8357" stroke="#7EB693" stroke-width="2" stroke-miterlimit="10"/>
<path d="M5.89551 48.3574L19.3955 48.3574L32.8955 48.3574" stroke="#7EB693" stroke-width="2" stroke-miterlimit="10"/>
<path d="M18.8955 1.35742L18.8955 8.35742L18.8955 15.3574" stroke="#7EB693" stroke-width="2" stroke-miterlimit="10"/>
<path d="M18.9697 14.6426V41.0742" stroke="#7EB693" stroke-width="2" stroke-miterlimit="10"/>
<path d="M30.0294 4.41016L18.9697 15.4944" stroke="#7EB693" stroke-width="2" stroke-miterlimit="10"/>
<path d="M34.2832 8.67383L18.9697 24.0212" stroke="#7EB693" stroke-width="2" stroke-miterlimit="10"/>
<path d="M36.8354 15.4941L18.9697 32.5468" stroke="#7EB693" stroke-width="2" stroke-miterlimit="10"/>
<path d="M37.6861 23.168L18.9697 41.9259" stroke="#7EB693" stroke-width="2" stroke-miterlimit="10"/>
<path d="M37.6865 31.6953L27.4775 41.9269" stroke="#7EB693" stroke-width="2" stroke-miterlimit="10"/>
<path d="M1.10449 31.6953L11.3134 41.9269" stroke="#7EB693" stroke-width="2" stroke-miterlimit="10"/>
<path d="M8.76074 4.41016L18.9697 15.4944" stroke="#7EB693" stroke-width="2" stroke-miterlimit="10"/>
<path d="M4.50781 8.67383L18.9705 24.0212" stroke="#7EB693" stroke-width="2" stroke-miterlimit="10"/>
<path d="M1.95508 14.6426L18.97 32.5478" stroke="#7EB693" stroke-width="2" stroke-miterlimit="10"/>
<path d="M1.10449 22.3164L18.9702 41.0743" stroke="#7EB693" stroke-width="2" stroke-miterlimit="10"/>
<path d="M19.3955 54.7158C9.29468 54.7158 1.10449 46.2635 1.10449 35.8351V19.8806C1.10449 9.45419 9.29468 1 19.3955 1C29.4982 1 37.6866 9.45419 37.6866 19.8806V35.8351C37.6884 46.2635 29.4982 54.7158 19.3955 54.7158Z" stroke="#7EB693" stroke-width="2" stroke-miterlimit="10"/>
</svg>
